<?xml version="1.0" encoding="utf-8" ?>
<svg xmlns="http://www.w3.org/2000/svg" xmlns:xlink="http://www.w3.org/1999/xlink" width="32" height="32" viewBox="0 0 32 32">
	<defs>
		<clipPath id="clipPath1153652987">
			<path transform="matrix(1 0 0 1 0 0)" d="M0 0L32 0L32 32L0 32L0 0Z" fill-rule="nonzero"/>
		</clipPath>
	</defs>
	<g clip-path="url(#clipPath1153652987)">
		<path transform="matrix(1 0 0 1 3 3)" d="M19 22.9912L19 1.5Q18.9994 1.29484 18.8523 1.14772Q18.7052 1.0006 18.4971 0.999996L1.5 1Q1.29484 1.0006 1.14772 1.14772Q1.0006 1.29484 0.999996 1.5029L1 23.5Q1.00185 24.1188 1.44153 24.5585Q1.8812 24.9981 2.50299 25L23 25L23 27L2.49701 27Q1.0503 26.9957 0.0273117 25.9727Q-0.995673 24.9497 -1 23.5L-0.999996 1.4971Q-0.996996 0.464012 -0.266492 -0.266492Q0.464012 -0.996996 1.5 -1L18.5029 -0.999996Q19.536 -0.996997 20.2665 -0.266494Q20.997 0.464013 21 1.5L21 22.9912L19 22.9912Z" fill-rule="nonzero" fill="rgb(37, 99, 235)"/>
		<path transform="matrix(1 0 0 1 23 8)" d="M3 22Q1.34315 22 0.171572 20.8284Q-1 19.6569 -1 18L-1 0Q-1 -0.0984914 -0.980785 -0.19509Q-0.96157 -0.291689 -0.923879 -0.382683Q-0.886188 -0.473678 -0.83147 -0.55557Q-0.776751 -0.637463 -0.707107 -0.707107Q-0.637463 -0.776751 -0.55557 -0.831469Q-0.473678 -0.886188 -0.382683 -0.923879Q-0.291689 -0.961571 -0.19509 -0.980785Q-0.0984914 -1 0 -1L4.5 -1Q5.53553 -1 6.26776 -0.267768Q7 0.464465 7 1.5L7 18Q7 19.6569 5.82843 20.8284Q4.65685 22 3 22ZM3 20Q3.82843 20 4.41421 19.4142Q5 18.8284 5 18L5 1.5Q5 1.29289 4.85355 1.14645Q4.70711 1 4.5 1L0 1L0 0L1 0L1 18Q1 18.8284 1.58579 19.4142Q2.17157 20 3 20Z" fill-rule="nonzero" fill="rgb(37, 99, 235)"/>
		<path transform="matrix(1 0 0 1 7 8)" d="M7 0C7 0.55228 7.44772 1 8 1L12 1C12.5523 1 13 0.55228 13 0C13 -0.55228 12.5523 -1 12 -1L8 -1C7.44772 -1 7 -0.55228 7 0ZM7 4C7 4.55228 7.44772 5 8 5L12 5C12.5523 5 13 4.55228 13 4C13 3.44772 12.5523 3 12 3L8 3C7.44772 3 7 3.44772 7 4ZM-1 8C-1 8.55228 -0.55228 9 0 9L12 9C12.5523 9 13 8.55228 13 8C13 7.44772 12.5523 7 12 7L0 7C-0.55228 7 -1 7.44772 -1 8ZM-1 12C-1 12.5523 -0.55228 13 0 13L12 13C12.5523 13 13 12.5523 13 12C13 11.4477 12.5523 11 12 11L0 11C-0.55228 11 -1 11.4477 -1 12ZM-1 16C-1 16.5523 -0.55228 17 0 17L12 17C12.5523 17 13 16.5523 13 16C13 15.4477 12.5523 15 12 15L0 15C-0.55228 15 -1 15.4477 -1 16Z" fill-rule="evenodd" fill="rgb(37, 99, 235)"/>
		<path transform="matrix(1 0 0 1 6 7)" d="M5 6L1 6C0.723857 6 0.488155 5.90237 0.292893 5.70711C0.0976311 5.51184 0 5.27614 0 5L0 1C0 0.723858 0.0976311 0.488155 0.292893 0.292893C0.488156 0.0976311 0.723858 0 1 0L5 0C5.27614 0 5.51184 0.0976308 5.70711 0.292892C5.90237 0.488155 6 0.723857 6 1L6 5C6 5.27614 5.90237 5.51184 5.70711 5.70711C5.51184 5.90237 5.27614 6 5 6Z" fill-rule="nonzero" fill="rgb(37, 99, 235)"/>
	</g>
</svg>
